<svg xmlns="http://www.w3.org/2000/svg" viewBox="0 0 400 400" fill="none">
  <rect width="400" height="400" fill="#f5f0e8" rx="8"/>
  <rect x="140" y="100" width="120" height="200" rx="8" fill="#5c3a1e"/>
  <rect x="260" y="180" width="30" height="60" rx="4" fill="#5c3a1e" opacity="0.6"/>
  <ellipse cx="200" cy="100" rx="60" ry="8" fill="#6b4528"/>
  <ellipse cx="200" cy="98" rx="56" ry="6" fill="#1e1208"/>
  <!-- steam -->
  <path d="M170 80 Q160 60 170 40 Q180 25 170 10" stroke="#8b6f47" stroke-width="1.5" fill="none" opacity="0.3" stroke-linecap="round"/>
  <path d="M200 75 Q190 55 200 35 Q210 20 200 5" stroke="#8b6f47" stroke-width="1.5" fill="none" opacity="0.25" stroke-linecap="round"/>
  <path d="M230 80 Q220 60 230 40 Q240 25 230 10" stroke="#8b6f47" stroke-width="1.5" fill="none" opacity="0.2" stroke-linecap="round"/>
  <!-- coffee beans -->
  <ellipse cx="180" cy="270" rx="6" ry="4" fill="#1e1208" transform="rotate(-30, 180, 270)"/>
  <ellipse cx="210" cy="275" rx="6" ry="4" fill="#1e1208" transform="rotate(15, 210, 275)"/>
  <ellipse cx="195" cy="265" rx="5" ry="3" fill="#1e1208" transform="rotate(-10, 195, 265)"/>
  <!-- label -->
  <rect x="160" y="130" width="80" height="60" rx="4" fill="#1e1208"/>
  <text x="200" y="155" text-anchor="middle" font-family="'Space Grotesk', sans-serif" font-size="11" font-weight="700" letter-spacing="1" fill="#f5f0e8">URBAN</text>
  <text x="200" y="172" text-anchor="middle" font-family="'Space Grotesk', sans-serif" font-size="11" font-weight="700" letter-spacing="1" fill="#f5f0e8">BREW</text>
  <text x="200" y="185" text-anchor="middle" font-family="'DM Sans', sans-serif" font-size="5" font-weight="400" letter-spacing="1" fill="#8b6f47">KIRINYAGA</text>
  <text x="200" y="340" text-anchor="middle" font-family="'DM Sans', sans-serif" font-size="8" font-weight="400" letter-spacing="2" fill="#8b6f47">KIRINYAGA ESTATE BLEND</text>
</svg>