<svg xmlns="http://www.w3.org/2000/svg" viewBox="0 0 600 400" fill="none">
  <rect width="600" height="400" fill="#111" rx="8"/>
  <rect x="20" y="20" width="560" height="360" rx="4" fill="#0a0a0a"/>
  <rect x="20" y="20" width="560" height="40" rx="4" fill="#1a1a1a"/>
  <circle cx="38" cy="40" r="5" fill="#ff5f56"/>
  <circle cx="55" cy="40" r="5" fill="#ffbd2e"/>
  <circle cx="72" cy="40" r="5" fill="#27c93f"/>
  <rect x="60" y="90" width="80" height="30" rx="4" fill="#1a1a1a" stroke="#2a2a2a" stroke-width="1"/>
  <rect x="60" y="135" width="200" height="140" rx="6" fill="#1a1a1a" stroke="#2a2a2a" stroke-width="1"/>
  <rect x="75" y="155" width="170" height="8" rx="2" fill="#2a2a2a"/>
  <rect x="75" y="175" width="140" height="8" rx="2" fill="#2a2a2a"/>
  <rect x="75" y="195" width="160" height="8" rx="2" fill="#2a2a2a"/>
  <circle cx="85" cy="245" r="6" fill="none" stroke="#c9a84c" stroke-width="1.5" opacity="0.5"/>
  <circle cx="105" cy="245" r="6" fill="none" stroke="#c9a84c" stroke-width="1.5" opacity="0.3"/>
  <circle cx="125" cy="245" r="6" fill="none" stroke="#c9a84c" stroke-width="1.5" opacity="0.3"/>
  <text x="60" y="300" font-family="'DM Sans',sans-serif" font-size="13" font-weight="700" letter-spacing="1" fill="#c9a84c">Notes App</text>
  <text x="60" y="320" font-family="'DM Sans',sans-serif" font-size="8" font-weight="400" fill="white" opacity="0.3">Note-taking · React · JavaScript · CRUD</text>
</svg>